<?xml version="1.0" standalone="no"?>
<!DOCTYPE svg PUBLIC "-//W3C//DTD SVG 20010904//EN"
 "http://www.w3.org/TR/2001/REC-SVG-20010904/DTD/svg10.dtd">
<svg version="1.0" xmlns="http://www.w3.org/2000/svg"
 width="300.000000pt" height="263.000000pt" viewBox="0 0 300.000000 263.000000"
 preserveAspectRatio="xMidYMid meet">
<metadata>
Created by potrace 1.10, written by Peter Selinger 2001-2011
</metadata>
<g transform="translate(0.000000,263.000000) scale(0.100000,-0.100000)"
fill="#000000" stroke="none">
<path d="M1509 2310 c-110 -14 -280 -51 -354 -77 -83 -30 -281 -129 -345 -172
-25 -17 -50 -31 -56 -31 -6 0 -22 -10 -35 -23 -13 -12 -60 -53 -105 -89 -253
-209 -405 -454 -433 -700 -29 -257 81 -486 306 -634 159 -105 285 -151 493
-180 137 -19 198 -13 287 27 59 27 68 28 110 17 54 -13 235 -6 407 17 225 30
502 102 645 166 35 16 66 27 70 24 4 -2 34 11 67 29 68 38 170 151 208 231 36
75 59 197 51 275 -15 165 -82 358 -170 495 -93 146 -288 358 -399 434 -101 70
-317 159 -436 180 -85 15 -238 20 -311 11z m324 -54 c106 -21 313 -108 401
-170 109 -75 277 -255 375 -399 123 -181 198 -463 167 -627 -10 -53 -10 -51
-17 80 -13 239 -87 428 -248 630 -20 24 -45 56 -56 70 -45 56 -193 195 -240
225 -151 97 -324 163 -471 180 -135 16 -380 -10 -524 -56 -213 -68 -474 -214
-607 -339 -13 -11 -23 -17 -23 -12 0 5 24 27 53 51 28 23 66 53 82 67 74 62
327 196 457 242 76 27 250 65 348 75 62 6 229 -3 303 -17z m-33 -60 c88 -16
174 -47 291 -106 112 -56 160 -93 266 -203 124 -130 207 -244 264 -363 73
-150 92 -232 93 -389 1 -152 -13 -212 -72 -300 -35 -52 -46 -60 -137 -101
-202 -92 -450 -160 -762 -209 -207 -33 -354 -47 -411 -39 -32 4 -71 0 -113
-10 -67 -18 -102 -16 -254 9 -109 19 -205 50 -300 97 -227 114 -340 241 -385
431 -65 272 71 563 384 825 110 91 198 149 327 212 174 86 281 119 489 153 58
10 251 5 320 -7z m-1260 -411 c-24 -25 -46 -45 -48 -45 -7 0 20 32 52 63 47
45 44 31 -4 -18z"/>
<path d="M1076 1001 c-23 -26 -13 -59 21 -67 20 -5 31 -2 45 16 16 20 17 25 5
44 -19 28 -49 31 -71 7z"/>
<path d="M2007 982 c-35 -38 -13 -71 37 -58 29 7 43 41 26 61 -17 20 -44 19
-63 -3z"/>
<path d="M1710 799 c-167 -9 -374 -27 -403 -35 -12 -4 -17 -13 -15 -27 l3 -22
280 2 c154 1 290 5 302 8 12 3 28 15 34 27 10 18 8 24 -11 40 -12 10 -25 17
-29 17 -3 -1 -76 -6 -161 -10z"/>
</g>
</svg>
