 <svg  version="1.0" xmlns="http://www.w3.org/2000/svg"  width="900.000000pt" height="780.000000pt" viewBox="0 0 900.000000 780.000000"  preserveAspectRatio="xMidYMid meet">  <g transform="translate(0.000000,780.000000) scale(0.100000,-0.100000)" fill="#b78aa2" stroke="none"> <path d="M0 3900 l0 -3900 4500 0 4500 0 0 3900 0 3900 -4500 0 -4500 0 0 -3900z m5141 2452 c106 -12 347 -58 414 -79 245 -77 690 -282 862 -396 324 -217 841 -782 1084 -1183 155 -257 281 -557 319 -762 5 -30 12 -57 14 -61 8 -12 33 -141 56 -281 33 -202 25 -341 -34 -590 -49 -210 -136 -365 -321 -575 -99 -113 -152 -162 -228 -214 -59 -40 -208 -111 -233 -111 -23 0 -111 -32 -274 -100 -150 -62 -369 -135 -580 -193 -58 -16 -272 -64 -405 -92 -44 -9 -110 -23 -147 -31 -38 -8 -98 -20 -135 -28 -38 -8 -124 -22 -193 -31 -69 -9 -154 -21 -190 -27 -71 -12 -145 -20 -385 -42 -185 -17 -500 -12 -580 9 -116 31 -138 30 -214 -9 -39 -20 -76 -36 -84 -36 -7 0 -44 -15 -83 -34 -38 -19 -87 -39 -109 -45 -59 -16 -403 -14 -505 3 -47 8 -134 22 -195 31 -60 9 -180 35 -265 57 -85 22 -171 44 -191 49 -42 10 -233 91 -334 141 -85 42 -270 152 -357 211 -35 24 -91 62 -125 86 -104 71 -259 244 -390 435 -105 153 -173 326 -217 556 -8 41 -20 104 -28 140 -16 81 -16 311 0 410 35 206 68 337 114 455 11 28 26 66 33 85 57 154 107 253 189 375 36 55 184 259 213 295 84 105 113 141 143 175 52 61 238 245 295 292 125 105 313 257 347 281 20 15 42 36 48 47 11 20 80 65 99 65 12 0 141 77 231 138 64 44 520 273 660 332 88 37 224 86 295 106 75 21 337 79 445 98 52 10 114 21 136 26 23 6 97 15 165 21 68 6 126 13 129 16 8 8 414 -5 511 -15z"/> <path d="M4560 6090 c-189 -21 -254 -32 -520 -85 -197 -40 -401 -105 -575 -185 -302 -139 -537 -259 -645 -329 -30 -20 -73 -45 -95 -56 -22 -11 -66 -40 -97 -65 -31 -25 -78 -61 -104 -80 -296 -221 -533 -447 -709 -674 -16 -22 -43 -56 -60 -77 -16 -21 -40 -53 -53 -71 -12 -18 -45 -64 -73 -101 -131 -177 -253 -482 -306 -767 -26 -141 -24 -374 5 -506 67 -311 109 -407 269 -617 113 -148 211 -242 351 -336 323 -217 549 -324 892 -423 61 -18 162 -40 290 -62 47 -8 123 -22 170 -31 125 -22 352 -24 415 -3 28 9 85 24 128 33 77 17 90 17 267 -1 102 -11 639 43 865 86 47 9 240 37 315 46 41 5 170 30 255 49 33 8 92 21 130 29 39 8 124 27 190 42 66 14 138 30 160 34 22 4 76 17 120 30 44 12 95 26 113 30 19 5 46 13 60 18 15 6 54 18 87 27 80 23 182 57 285 95 47 17 96 35 110 40 27 8 169 69 235 100 22 10 84 39 137 64 54 25 102 46 107 46 20 0 73 55 126 132 30 44 55 81 55 83 0 2 13 26 28 52 122 208 183 602 137 878 -89 526 -220 843 -520 1255 -11 15 -45 59 -77 96 -31 38 -80 98 -109 134 -213 264 -495 532 -683 649 -105 66 -284 155 -465 232 -287 123 -419 157 -768 194 -174 18 -244 18 -443 -5z m-1036 -3074 c45 -19 66 -52 66 -104 0 -35 -6 -49 -29 -73 -25 -24 -38 -29 -78 -29 -41 0 -54 5 -77 28 -35 37 -42 87 -19 132 29 56 75 72 137 46z m2391 -50 c38 -16 55 -42 55 -83 0 -86 -121 -135 -190 -76 -27 22 -31 31 -26 57 8 36 49 83 91 102 37 16 30 16 70 0z m-396 -512 c54 -45 39 -123 -32 -162 -27 -14 -72 -18 -307 -23 -151 -4 -300 -12 -330 -18 -42 -9 -115 -9 -306 0 -185 8 -265 8 -303 0 -29 -6 -94 -11 -145 -11 -79 0 -97 3 -120 21 -71 56 0 128 127 129 20 0 63 6 95 14 64 17 316 36 467 36 91 1 128 4 295 29 30 5 162 9 292 10 l236 1 31 -26z"/> </g> </svg> 